<?xml version="1.0" standalone="no"?>
<!DOCTYPE svg PUBLIC "-//W3C//DTD SVG 20010904//EN"
 "http://www.w3.org/TR/2001/REC-SVG-20010904/DTD/svg10.dtd">
<svg version="1.0" xmlns="http://www.w3.org/2000/svg"
 width="65.000000pt" height="56.000000pt" viewBox="0 0 65.000000 56.000000"
 preserveAspectRatio="xMidYMid meet">

<g transform="translate(0.000000,56.000000) scale(0.100000,-0.100000)"
fill="#000000" stroke="none">
<path d="M227 473 c-4 -3 -7 -16 -7 -27 0 -12 -8 -33 -18 -47 -100 -149 -102
-153 -102 -192 0 -35 7 -46 53 -92 70 -70 89 -79 153 -71 75 9 140 42 159 82
32 68 12 194 -31 194 -8 0 -14 10 -14 25 0 34 -34 66 -110 104 -66 33 -73 35
-83 24z m145 -85 c19 -18 28 -36 28 -57 0 -24 4 -31 20 -31 10 0 24 -9 30 -19
14 -28 12 -107 -4 -139 -14 -26 -56 -71 -56 -59 0 3 -16 -1 -35 -9 -71 -30
-126 -12 -194 61 -53 58 -53 84 2 165 23 35 50 75 59 89 10 14 18 36 18 48 l0
21 52 -21 c28 -12 64 -34 80 -49z"/>
<path d="M434 465 c-13 -31 -10 -91 5 -108 12 -15 15 -15 37 1 32 23 30 55 -5
94 -28 31 -30 32 -37 13z m39 -47 c6 -22 -7 -48 -24 -48 -10 0 -12 31 -3 54 9
23 21 20 27 -6z"/>
</g>
</svg>
